<mxfile host="65bd71144e">
    <diagram name="第 1 页" id="AnMRVbrkqxffbET3McZs">
        <mxGraphModel dx="599" dy="510" grid="1" gridSize="10" guides="1" tooltips="1" connect="1" arrows="1" fold="1" page="1" pageScale="1" pageWidth="827" pageHeight="1169" math="0" shadow="0">
            <root>
                <mxCell id="0"/>
                <mxCell id="1" parent="0"/>
                <mxCell id="104" value="" style="rounded=1;whiteSpace=wrap;html=1;strokeWidth=2.25;fillColor=#f5f5f5;strokeColor=#666666;fontColor=#333333;fontFamily=冬青黑体简体中文;" parent="1" vertex="1">
                    <mxGeometry x="135.76" y="92" width="193.92" height="50" as="geometry"/>
                </mxCell>
                <mxCell id="103" value="" style="rounded=1;whiteSpace=wrap;html=1;strokeWidth=2.25;fillColor=#dae8fc;strokeColor=#6c8ebf;fontFamily=冬青黑体简体中文;" parent="1" vertex="1">
                    <mxGeometry x="149.43999999999994" y="102" width="30" height="30" as="geometry"/>
                </mxCell>
                <mxCell id="105" value="" style="rounded=1;whiteSpace=wrap;html=1;strokeWidth=2.25;fillColor=#dae8fc;strokeColor=#6c8ebf;fontFamily=冬青黑体简体中文;" parent="1" vertex="1">
                    <mxGeometry x="194.43999999999994" y="102" width="30" height="30" as="geometry"/>
                </mxCell>
                <mxCell id="106" value="" style="rounded=1;whiteSpace=wrap;html=1;strokeWidth=2.25;fillColor=#dae8fc;strokeColor=#6c8ebf;fontFamily=冬青黑体简体中文;" parent="1" vertex="1">
                    <mxGeometry x="240.76" y="102" width="30" height="30" as="geometry"/>
                </mxCell>
                <mxCell id="114" value="" style="rounded=1;whiteSpace=wrap;html=1;strokeWidth=2.25;fillColor=#f5f5f5;strokeColor=#666666;fontColor=#333333;fontFamily=冬青黑体简体中文;" parent="1" vertex="1">
                    <mxGeometry x="181.43999999999994" y="142" width="193.92" height="50" as="geometry"/>
                </mxCell>
                <mxCell id="115" value="" style="rounded=1;whiteSpace=wrap;html=1;strokeWidth=2.25;fillColor=#fff2cc;strokeColor=#d6b656;fontFamily=冬青黑体简体中文;" parent="1" vertex="1">
                    <mxGeometry x="195.1199999999999" y="152" width="30" height="30" as="geometry"/>
                </mxCell>
                <mxCell id="116" value="" style="rounded=1;whiteSpace=wrap;html=1;strokeWidth=2.25;fillColor=#fff2cc;strokeColor=#d6b656;fontFamily=冬青黑体简体中文;" parent="1" vertex="1">
                    <mxGeometry x="240.1199999999999" y="152" width="30" height="30" as="geometry"/>
                </mxCell>
                <mxCell id="118" value="" style="rounded=1;whiteSpace=wrap;html=1;strokeWidth=2.25;fillColor=#fff2cc;strokeColor=#d6b656;fontFamily=冬青黑体简体中文;" parent="1" vertex="1">
                    <mxGeometry x="331.8399999999999" y="152" width="30" height="30" as="geometry"/>
                </mxCell>
                <mxCell id="121" value="" style="rounded=1;whiteSpace=wrap;html=1;strokeWidth=2.25;fillColor=#f5f5f5;strokeColor=#666666;fontColor=#333333;fontFamily=冬青黑体简体中文;" parent="1" vertex="1">
                    <mxGeometry x="228.15999999999997" y="192" width="193.92" height="50" as="geometry"/>
                </mxCell>
                <mxCell id="122" value="" style="rounded=1;whiteSpace=wrap;html=1;strokeWidth=2.25;fillColor=#d5e8d4;strokeColor=#82b366;fontFamily=冬青黑体简体中文;" parent="1" vertex="1">
                    <mxGeometry x="241.83999999999992" y="202" width="30" height="30" as="geometry"/>
                </mxCell>
                <mxCell id="124" value="" style="rounded=1;whiteSpace=wrap;html=1;strokeWidth=2.25;fillColor=#d5e8d4;strokeColor=#82b366;fontFamily=冬青黑体简体中文;" parent="1" vertex="1">
                    <mxGeometry x="333.15999999999997" y="202" width="30" height="30" as="geometry"/>
                </mxCell>
                <mxCell id="125" value="" style="rounded=1;whiteSpace=wrap;html=1;strokeWidth=2.25;fillColor=#d5e8d4;strokeColor=#82b366;fontFamily=冬青黑体简体中文;" parent="1" vertex="1">
                    <mxGeometry x="378.55999999999995" y="202" width="30" height="30" as="geometry"/>
                </mxCell>
                <mxCell id="126" value="" style="rounded=1;whiteSpace=wrap;html=1;strokeWidth=2.25;fillColor=#f5f5f5;strokeColor=#666666;fontColor=#333333;fontFamily=冬青黑体简体中文;" parent="1" vertex="1">
                    <mxGeometry x="273.64" y="242" width="193.92" height="50" as="geometry"/>
                </mxCell>
                <mxCell id="128" value="" style="rounded=1;whiteSpace=wrap;html=1;strokeWidth=2.25;fillColor=#f8cecc;strokeColor=#b85450;fontFamily=冬青黑体简体中文;" parent="1" vertex="1">
                    <mxGeometry x="332.31999999999994" y="252" width="30" height="30" as="geometry"/>
                </mxCell>
                <mxCell id="131" value="" style="rounded=1;whiteSpace=wrap;html=1;fontFamily=冬青黑体简体中文;" parent="1" vertex="1">
                    <mxGeometry x="279.76" y="72" width="44.16" height="240" as="geometry"/>
                </mxCell>
                <mxCell id="129" value="" style="rounded=1;whiteSpace=wrap;html=1;strokeWidth=2.25;fillColor=#f8cecc;strokeColor=#b85450;fontFamily=冬青黑体简体中文;" parent="1" vertex="1">
                    <mxGeometry x="378.64" y="252" width="30" height="30" as="geometry"/>
                </mxCell>
                <mxCell id="130" value="" style="rounded=1;whiteSpace=wrap;html=1;strokeWidth=2.25;fillColor=#f8cecc;strokeColor=#b85450;fontFamily=冬青黑体简体中文;" parent="1" vertex="1">
                    <mxGeometry x="424.03999999999996" y="252" width="30" height="30" as="geometry"/>
                </mxCell>
                <mxCell id="107" value="0.64" style="rounded=1;whiteSpace=wrap;html=1;strokeWidth=2.25;fillColor=#dae8fc;strokeColor=#6c8ebf;fontFamily=冬青黑体简体中文;fontSize=11;" parent="1" vertex="1">
                    <mxGeometry x="286.15999999999997" y="102" width="30" height="30" as="geometry"/>
                </mxCell>
                <mxCell id="117" value="&lt;font style=&quot;font-size: 11px;&quot;&gt;0.23&lt;/font&gt;" style="rounded=1;whiteSpace=wrap;html=1;strokeWidth=2.25;fillColor=#fff2cc;strokeColor=#d6b656;fontFamily=冬青黑体简体中文;" parent="1" vertex="1">
                    <mxGeometry x="286.43999999999994" y="152" width="30" height="30" as="geometry"/>
                </mxCell>
                <mxCell id="123" value="&lt;font style=&quot;font-size: 11px;&quot;&gt;0.09&lt;/font&gt;" style="rounded=1;whiteSpace=wrap;html=1;strokeWidth=2.25;fillColor=#d5e8d4;strokeColor=#82b366;fontFamily=冬青黑体简体中文;" parent="1" vertex="1">
                    <mxGeometry x="286.8399999999999" y="202" width="30" height="30" as="geometry"/>
                </mxCell>
                <mxCell id="127" value="&lt;font&gt;0.06&lt;/font&gt;" style="rounded=1;whiteSpace=wrap;html=1;strokeWidth=2.25;fillColor=#f8cecc;strokeColor=#b85450;fontSize=12;fontFamily=冬青黑体简体中文;" parent="1" vertex="1">
                    <mxGeometry x="287.31999999999994" y="252" width="30" height="30" as="geometry"/>
                </mxCell>
                <mxCell id="133" value="" style="endArrow=classic;html=1;fontFamily=冬青黑体简体中文;" parent="1" edge="1">
                    <mxGeometry width="50" height="50" relative="1" as="geometry">
                        <mxPoint x="111" y="92" as="sourcePoint"/>
                        <mxPoint x="111" y="302" as="targetPoint"/>
                    </mxGeometry>
                </mxCell>
                <mxCell id="134" value="预测步" style="edgeLabel;html=1;align=center;verticalAlign=middle;resizable=0;points=[];fontFamily=冬青黑体简体中文;" parent="133" vertex="1" connectable="0">
                    <mxGeometry x="-0.031" y="-1" relative="1" as="geometry">
                        <mxPoint as="offset"/>
                    </mxGeometry>
                </mxCell>
                <mxCell id="135" value="" style="endArrow=classic;html=1;fontFamily=冬青黑体简体中文;" parent="1" edge="1">
                    <mxGeometry width="50" height="50" relative="1" as="geometry">
                        <mxPoint x="160.84000000000003" y="52" as="sourcePoint"/>
                        <mxPoint x="440.8399999999999" y="52" as="targetPoint"/>
                    </mxGeometry>
                </mxCell>
                <mxCell id="136" value="时间" style="edgeLabel;html=1;align=center;verticalAlign=middle;resizable=0;points=[];fontFamily=冬青黑体简体中文;" parent="135" vertex="1" connectable="0">
                    <mxGeometry x="-0.2371" y="1" relative="1" as="geometry">
                        <mxPoint as="offset"/>
                    </mxGeometry>
                </mxCell>
                <mxCell id="137" value="权重" style="edgeLabel;html=1;align=center;verticalAlign=middle;resizable=0;points=[];fontFamily=冬青黑体简体中文;" parent="1" vertex="1" connectable="0">
                    <mxGeometry x="272.83714285714314" y="66" as="geometry">
                        <mxPoint x="28" y="21" as="offset"/>
                    </mxGeometry>
                </mxCell>
            </root>
        </mxGraphModel>
    </diagram>
</mxfile>
